<?xml version="1.0" standalone="no"?>
<!DOCTYPE svg PUBLIC "-//W3C//DTD SVG 20010904//EN"
 "http://www.w3.org/TR/2001/REC-SVG-20010904/DTD/svg10.dtd">
<svg version="1.0" xmlns="http://www.w3.org/2000/svg"
 width="200.000000pt" height="200.000000pt" viewBox="0 0 200.000000 200.000000"
 preserveAspectRatio="xMidYMid meet">

<g transform="translate(0.000000,200.000000) scale(0.100000,-0.100000)"
fill="#000000" stroke="none">
<path d="M0 1000 l0 -1000 1000 0 1000 0 0 1000 0 1000 -1000 0 -1000 0 0
-1000z m970 78 l0 -62 33 32 c22 21 43 32 62 32 l29 0 -34 -35 -34 -35 32 -39
c38 -48 39 -51 8 -51 -15 0 -34 12 -50 31 -28 33 -46 31 -46 -7 0 -19 -5 -24
-25 -24 l-25 0 0 110 0 110 25 0 c24 0 25 -3 25 -62z m-734 5 c53 -93 47 -92
90 -18 38 65 65 82 78 49 3 -9 6 -56 6 -105 0 -88 0 -89 -25 -89 -24 0 -25 3
-25 63 l0 62 -31 -52 c-17 -29 -36 -53 -42 -53 -7 0 -26 21 -42 48 l-30 47 -3
-57 c-3 -50 -6 -58 -22 -58 -19 0 -20 8 -20 105 0 97 2 105 19 105 12 0 29
-17 47 -47z m259 -55 l19 -52 17 39 c10 22 18 46 18 53 1 6 12 12 26 12 14 0
25 -6 26 -12 0 -7 8 -31 18 -53 l18 -40 17 53 c13 39 23 52 37 52 24 0 24 -1
-7 -87 -23 -62 -30 -73 -50 -73 -17 0 -26 10 -40 45 -19 50 -26 49 -44 -8 -10
-32 -16 -38 -37 -35 -22 3 -29 14 -53 81 l-29 77 23 0 c18 0 26 -10 41 -52z
m365 32 c16 -16 20 -33 20 -80 l0 -59 -42 0 c-24 1 -47 0 -53 -1 -19 -4 -34 0
-49 16 -35 34 -6 74 55 74 42 0 51 13 20 30 -13 6 -28 7 -44 1 -20 -8 -27 -6
-31 6 -9 22 11 33 62 33 29 0 48 -6 62 -20z m387 -2 c13 -12 23 -32 23 -45 0
-22 -4 -23 -60 -23 -63 0 -77 -13 -36 -31 17 -8 29 -8 44 0 15 8 23 7 33 -5
18 -22 -3 -34 -59 -34 -54 0 -92 33 -92 80 0 70 95 107 147 58z m205 5 c14
-12 18 -32 18 -80 0 -56 -2 -63 -20 -63 -16 0 -20 7 -20 38 0 59 -10 82 -34
82 -34 0 -46 -19 -46 -72 0 -41 -3 -48 -19 -48 -23 0 -28 26 -23 106 l4 51 61
1 c43 1 67 -4 79 -15z m108 -35 l22 -53 24 53 c17 38 29 52 44 52 11 0 20 -3
20 -6 0 -14 -75 -181 -88 -196 -15 -18 -76 -25 -86 -10 -8 14 11 35 27 29 34
-13 38 18 11 79 -47 105 -46 104 -20 104 19 0 28 -11 46 -52z m252 35 c14 -12
18 -31 18 -78 l0 -63 -62 -1 c-67 -1 -88 10 -88 43 0 32 19 46 61 46 45 0 58
14 28 31 -16 8 -28 8 -46 0 -19 -9 -25 -8 -30 5 -3 9 0 20 8 25 24 15 91 10
111 -8z"/>
<path d="M777 983 c-17 -17 -6 -34 20 -31 36 4 45 38 10 38 -13 0 -27 -3 -30
-7z"/>
<path d="M1162 1038 c-21 -21 -13 -28 28 -28 22 0 40 4 40 8 0 14 -23 32 -40
32 -9 0 -21 -5 -28 -12z"/>
<path d="M1731 977 c-14 -17 -4 -27 25 -27 21 0 39 22 27 34 -11 11 -40 6 -52
-7z"/>
</g>
</svg>
